<svg xmlns="http://www.w3.org/2000/svg" width="16" height="16" viewBox="0 0 16 16">
  <g fill="none" fill-rule="evenodd">
    <polygon fill="#40B6E0" points="12.791 9.641 14.224 9.641 14.224 7.997 12.791 7.997"/>
    <polygon fill="#40B6E0" points="11.5 10.615 14.223 10.615 14.223 14.916 16.005 14.916 16.005 15.997 11.005 15.997 11.005 14.916 12.791 14.916 12.791 11.696 11.5 11.696"/>
    <path fill="#9AA7B0" d="M2.9834,1.2 L4.1,4 L1.8964,4 L2.9834,1.2 Z M4.8154,5.9999 L6.0004,5.9999 L3.4464,-0.0001 L2.5534,-0.0001 L0.0004,5.9999 L1.1514,5.9999 L1.5654,4.9999 L4.4064,4.9999 L4.8154,5.9999 Z" transform="translate(5 5)"/>
    <path fill="#9AA7B0" d="M14.9291111,7 L13.9170416,7 C13.4409635,4.16228666 10.9729963,2 8,2 C4.6862915,2 2,4.6862915 2,8 C2,11.3137085 4.6862915,14 8,14 C8.70127085,14 9.37444215,13.8796916 10,13.6585886 L10,14.7101213 C9.36629059,14.8987225 8.69497261,15 8,15 C4.13400675,15 1,11.8659932 1,8 C1,4.13400675 4.13400675,1 8,1 C11.5264719,1 14.4438815,3.60770586 14.9291111,7 Z"/>
  </g>
</svg>
