<svg xmlns="http://www.w3.org/2000/svg" width="16" height="16" viewBox="0 0 16 16">
  <g fill="none" fill-rule="evenodd">
    <g fill="#9AA7B0" fill-opacity=".8" transform="translate(3 1)">
      <path d="M3,14 L0,14 L0,5 L5,5 L5,0 L10,0 L10,8.0002 L6.78083333,8.0002 C5.89931319,8.0002 5.16713663,8.86491946 5.02496937,10 L3,10 L3,14 Z"/>
      <polygon points="4 0 0 4 4 4"/>
    </g>
    <path fill="#40B6E0" d="M13,10.0002 L13,15.6252 L13,16.0002 L12,16.0002 L10.4246667,16.0002 C9.638,16.0002 9,15.1932 9,14.1972 L9,11.80245 C9,10.8072 9.638,10.0002 10.4246667,10.0002 L13,10.0002 Z"/>
    <polygon fill="#40B6E0" points="14 12 16 12 16 11 14 11"/>
    <polygon fill="#40B6E0" points="14 15 16 15 16 14 14 14"/>
    <rect width="1.5" height="2" x="7" y="12" fill="#40B6E0"/>
  </g>
</svg>
