<svg xmlns="http://www.w3.org/2000/svg" width="16" height="16" viewBox="0 0 16 16">
  <g fill="none" fill-rule="evenodd">
    <path fill="#40B6E0" d="M6.04755787,15 L6,15 L6,14.9654472 L6.04755787,15 Z M6,14.3899125 L6,8.81687909 C4.37715722,8.30717363 3.2,6.79105672 3.2,5 C3.2,2.790861 4.990861,1 7.2,1 C9.409139,1 11.2,2.790861 11.2,5 C11.2,6.75405596 10.0709773,8.24441453 8.5,8.78400756 L8.5,10.9489577 L6,14.3899125 Z M7.2,6.4 C7.97319865,6.4 8.6,5.77319865 8.6,5 C8.6,4.22680135 7.97319865,3.6 7.2,3.6 C6.42680135,3.6 5.8,4.22680135 5.8,5 C5.8,5.77319865 6.42680135,6.4 7.2,6.4 Z"/>
    <g transform="translate(7.1 7)">
      <polygon fill="#9AA7B0" points="7.619 8.357 8.905 8.357 8.905 0 7.619 0"/>
      <polygon fill="#9AA7B0" points="4.969 1.247 6.255 1.247 6.255 8.319 4.969 8.319" transform="rotate(16 5.612 4.783)"/>
      <polygon fill="#40B6E0" points="1.929 2.148 3.214 2.148 3.214 8.577 1.929 8.577" transform="rotate(36 2.571 5.363)"/>
    </g>
  </g>
</svg>
