<svg xmlns="http://www.w3.org/2000/svg" width="16" height="16" viewBox="0 0 16 16">
  <g fill="none" fill-rule="evenodd" transform="matrix(-1 0 0 1 16 2)">
    <polygon fill="#9AA7B0" fill-opacity=".8" points="15 0 10 0 10 12 15 12"/>
    <path fill="#9AA7B0" d="M5.6458244,9 C5.96981926,8.71403623 6.24713257,8.37640519 6.46487122,8 L9,8 L9,9 L6,9 L5.6458244,9 Z M6,11 L9,11 L9,12 L6,12 L6,11 Z M1,12 L1,9.46487122 L1,12 Z M1,2.53512878 L1,0 L9,0 L9,3 L6,3 L6,3.3541756 C5.26705555,2.52375489 4.19469253,2 3,2 C2.27142571,2 1.58834673,2.19478857 1,2.53512878 Z M6.87398251,5 L9,5 L9,6 L7,6 C7,5.65470043 6.956247,5.31961992 6.87398251,5 Z"/>
    <g transform="matrix(-1 0 0 1 6 3)">
      <path fill="#40B6E0" d="M3,0 L3,2 C2.44771525,2 2,2.44771525 2,3 C2,3.55228475 2.44771525,4 3,4 L3,11 L2,11 L2,5.82929429 C0.834807627,5.41745788 0,4.30621883 0,3 C0,1.34314575 1.34314575,0 3,0 Z"/>
      <path fill="#D9A343" d="M3,0 C4.65685425,0 6,1.34314575 6,3 C6,4.30621883 5.16519237,5.41745788 4,5.82929429 L4,8 L6,8 L6,10 L4,10 L4,11 L3,11 L3,4 C3.55228475,4 4,3.55228475 4,3 C4,2.44771525 3.55228475,2 3,2 L3,0 Z"/>
    </g>
  </g>
</svg>
