<svg xmlns="http://www.w3.org/2000/svg" width="16" height="16" viewBox="0 0 16 16">
  <g fill="none" fill-rule="evenodd" transform="matrix(-1 0 0 1 16 2)">
    <path fill="#9AA7B0" fill-opacity=".8" d="M15,8.33681558 C14.5453723,8.12084552 14.0367986,8 13.5,8 C11.5670034,8 10,9.56700338 10,11.5 C10,11.6697607 10.012086,11.8366985 10.0354444,12 L10,12 L10,0 L15,0 L15,8.33681558 Z"/>
    <path fill="#9AA7B0" d="M5.6458244,9 C5.96981926,8.71403623 6.24713257,8.37640519 6.46487122,8 L9,8 L9,9 L6,9 L5.6458244,9 Z M6,11 L9,11 L9,12 L6,12 L6,11 Z M1,12 L1,9.46487122 L1,12 Z M1,2.53512878 L1,0 L9,0 L9,3 L6,3 L6,3.3541756 C5.26705555,2.52375489 4.19469253,2 3,2 C2.27142571,2 1.58834673,2.19478857 1,2.53512878 Z M6.87398251,5 L9,5 L9,6 L7,6 C7,5.65470043 6.956247,5.31961992 6.87398251,5 Z"/>
    <path fill="#D9A343" d="M4,11 L6,11 L6,13 L4,13 L4,14 L2,14 L2,8.82929429 C0.834807627,8.41745788 0,7.30621883 0,6 C0,4.34314575 1.34314575,3 3,3 C4.65685425,3 6,4.34314575 6,6 C6,7.30621883 5.16519237,8.41745788 4,8.82929429 L4,11 Z M3,7 C3.55228475,7 4,6.55228475 4,6 C4,5.44771525 3.55228475,5 3,5 C2.44771525,5 2,5.44771525 2,6 C2,6.55228475 2.44771525,7 3,7 Z" transform="matrix(-1 0 0 1 6 0)"/>
    <circle cx="13.5" cy="11.5" r="2.5" fill="#231F20" fill-opacity=".7"/>
  </g>
</svg>
