<svg xmlns="http://www.w3.org/2000/svg" width="16" height="16" viewBox="0 0 16 16">
  <g fill="#9AA7B0" fill-rule="evenodd" transform="matrix(-1 0 0 1 16 2)">
    <polygon fill-opacity=".8" points="15 0 10 0 10 12 15 12"/>
    <path d="M6,11 L9,11 L9,12 L6,12 L6,11 Z M0.998999962,9.46429254 L1,9.465 L1,11 L0.998999962,9.46429254 Z M6.46422933,8.00110922 L9,8 L9,9 L6,9 L5.64413062,9.00149411 C5.96853438,8.71549328 6.24620813,8.37772414 6.46422933,8.00110922 Z M9,5 L9,6 L7,6 C7,5.65478811 6.95626921,5.31979009 6.87404517,5.00024347 L9,5 Z M9,0 L9,3 L6,3 L6.00095612,3.35525927 C5.2679883,2.52421057 4.19521212,2 3,2 C2.27101288,2 1.58757264,2.19500938 0.998999962,2.53570746 L1,0 L9,0 Z"/>
    <path d="M3,3 C4.65685425,3 6,4.34314575 6,6 C6,7.30588222 5.16562257,8.41688515 4.00090072,8.82897577 L4,11 L6,11 L6,13 L4,13 L4,14 L2,14 L2.00008893,8.82932572 C0.834850101,8.41751442 0,7.30625206 0,6 C0,4.34314575 1.34314575,3 3,3 Z M3,5 C2.44771525,5 2,5.44771525 2,6 C2,6.55228475 2.44771525,7 3,7 C3.55228475,7 4,6.55228475 4,6 C4,5.44771525 3.55228475,5 3,5 Z" transform="matrix(-1 0 0 1 6 0)"/>
  </g>
</svg>
