<svg xmlns="http://www.w3.org/2000/svg" width="16" height="16" viewBox="0 0 16 16">
  <g fill="none" fill-rule="evenodd">
    <path fill="#40B6E0" fill-opacity=".6" d="M15,8 C15,11.866 11.866,15 8,15 C4.134,15 1,11.866 1,8 C1,4.134 4.134,1 8,1 C11.866,1 15,4.134 15,8"/>
    <path fill="#231F20" fill-opacity=".7" d="M9 5C9 5.553 8.553 6 8 6 7.447 6 7 5.553 7 5 7 4.447 7.447 4 8 4 8.553 4 9 4.447 9 5M9 11C9 11.553 8.553 12 8 12 7.447 12 7 11.553 7 11 7 10.447 7.447 10 8 10 8.553 10 9 10.447 9 11M6 8C6 8.553 5.553 9 5 9 4.447 9 4 8.553 4 8 4 7.447 4.447 7 5 7 5.553 7 6 7.447 6 8M12 8C12 8.553 11.553 9 11 9 10.447 9 10 8.553 10 8 10 7.447 10.447 7 11 7 11.553 7 12 7.447 12 8"/>
  </g>
</svg>
