<svg xmlns="http://www.w3.org/2000/svg" width="16" height="16" viewBox="0 0 16 16">
  <g fill="none" fill-rule="evenodd">
    <path fill="#AFB1B3" d="M1,2 L15,2 L15,15 L1,15 L1,2 Z M2,5 L2,14 L14,14 L14,5 L2,5 Z"/>
    <path fill="#AFB1B3" d="M5.5129,4.4577 L4.9678,5.0649 L4.3882,4.5474 C3.9811,4.8372 3.4774,5.0028 2.9185,5.0028 C1.435,5.0028 0.4,3.8781 0.4,2.5188 C0.4,1.1457 1.4488,0.0072 2.9323,0.0072 C4.4158,0.0072 5.4508,1.1319 5.4508,2.4912 C5.4508,3.057 5.2714,3.5676 4.9609,3.9885 L5.5129,4.4577 Z M2.93187806,4.1162 C3.22986878,4.1162 3.48899114,4.04473548 3.71572321,3.9148 L2.93187806,3.23913548 L3.493645,2.604426 L4.290446,3.332065 C4.4329633,3.08518758 4.4607,2.84283226 4.4607,2.51799355 L4.4607,2.505 C4.4607,1.62143871 3.81937215,0.8938 2.91892194,0.8938 C2.01847173,0.8938 1.4,1.60844516 1.4,2.49200645 L1.4,2.505 C1.4,3.38856129 2.03142785,4.1162 2.93187806,4.1162 Z" transform="translate(3 7)"/>
    <polygon fill="#AFB1B3" points="0 0 1 0 1 4 3.5 4 3.5 5 0 5" transform="translate(9 7)"/>
  </g>
</svg>
