<svg xmlns="http://www.w3.org/2000/svg" width="16" height="16" viewBox="0 0 16 16">
  <g fill="none" fill-rule="evenodd">
    <polygon fill="#9AA7B0" fill-opacity=".8" points="7 1 3 5 7 5"/>
    <path fill="#9AA7B0" fill-opacity=".8" d="M7.02072598,8.4 L7,8.4 L7,14.9702052 L3,14.9702052 L3,6 L8,6 L8,1 L13,1 L13,7.42202234 C12.6768901,7.40758097 12.3424658,7.4 12,7.4 C9.39309123,7.4 7.25215529,7.83928077 7.02072598,8.4 Z"/>
    <path fill="#40B6E0" fill-opacity=".7" d="M8,10.1561565 C8.88477103,10.6277069 10.3465264,10.9357798 12,10.9357798 C13.6534736,10.9357798 15.115229,10.6277069 16,10.1561565 C16,10.6328741 16,10.9172134 16,11.0091743 C16,11.6171942 14.209139,12.1100918 12,12.1100918 C9.790861,12.1100918 8,11.6171942 8,11.0091743 C8,10.9296871 8,10.6453479 8,10.1561565 Z M16,12.0644133 C16,12.5754544 16,12.8776949 16,12.9711347 C16,13.5494951 14.209139,14.0183488 12,14.0183488 C9.790861,14.0183488 8,13.5494951 8,12.9711347 C8,12.8905022 8,12.5882617 8,12.0644133 C8.88477103,12.5359638 10.3465264,12.8440366 12,12.8440366 C13.6534736,12.8440366 15.115229,12.5359638 16,12.0644133 Z M16,13.9726701 L16,14.8990826 C16,15.5071025 14.209139,16 12,16 C9.790861,16 8,15.5071025 8,14.8990826 L8,13.9726701 C8.88477103,14.4442206 10.3465264,14.7522935 12,14.7522935 C13.6534736,14.7522935 15.115229,14.4442206 16,13.9726701 Z M12,10.2018349 C9.790861,10.2018349 8,9.70893734 8,9.10091743 C8,8.49289752 9.790861,8 12,8 C14.209139,8 16,8.49289752 16,9.10091743 C16,9.70893734 14.209139,10.2018349 12,10.2018349 Z"/>
  </g>
</svg>
