<svg xmlns="http://www.w3.org/2000/svg" width="16" height="16" viewBox="0 0 16 16">
  <path fill="#40B6E0" fill-opacity=".6" fill-rule="evenodd" d="M1,4.7732739 C2.5483493,5.59848716 5.10642125,6.13761469 8,6.13761469 C10.8935787,6.13761469 13.4516507,5.59848716 15,4.7732739 C15,5.60752964 15,6.10512337 15,6.26605509 C15,7.33008993 11.8659932,8.1926606 8,8.1926606 C4.13400675,8.1926606 1,7.33008993 1,6.26605509 C1,6.12695248 1,5.62935875 1,4.7732739 Z M15,8.11272332 C15,9.00704527 15,9.53596606 15,9.6994857 C15,10.7116164 11.8659932,11.5321105 8,11.5321105 C4.13400675,11.5321105 1,10.7116164 1,9.6994857 C1,9.55837883 1,9.02945804 1,8.11272332 C2.5483493,8.93793658 5.10642125,9.47706412 8,9.47706412 C10.8935787,9.47706412 13.4516507,8.93793658 15,8.11272332 Z M15,11.4521728 L15,13.0733945 C15,14.1374293 11.8659932,15 8,15 C4.13400675,15 1,14.1374293 1,13.0733945 L1,11.4521728 C2.5483493,12.277386 5.10642125,12.8165135 8,12.8165135 C10.8935787,12.8165135 13.4516507,12.277386 15,11.4521728 Z M8,4.85321102 C4.13400675,4.85321102 1,3.99064035 1,2.92660551 C1,1.86257067 4.13400675,1 8,1 C11.8659932,1 15,1.86257067 15,2.92660551 C15,3.99064035 11.8659932,4.85321102 8,4.85321102 Z"/>
</svg>
