<svg xmlns="http://www.w3.org/2000/svg" width="16" height="16" viewBox="0 0 16 16">
  <g fill="none" fill-rule="evenodd">
    <polygon fill="#F4AF3D" fill-opacity=".7" points="1 12 15 12 15 5 1 5"/>
    <polygon fill="#9AA7B0" fill-opacity=".8" points="2 4 14 4 14 2 2 2"/>
    <polygon fill="#9AA7B0" fill-opacity=".8" points="2 14 14 14 14 13 2 13"/>
    <path fill="#231F20" fill-opacity=".7" d="M1,1 L1,4 L1.649,4 C2.578,4 3,3.493 3,2.515 L3,2.5 C3,1.522 2.578,1 1.649,1 L1,1 Z M0,0 L1.649,0 C3.04,0 4,1.093 4,2.5 C4,3.921 3.04,5 1.649,5 L0,5 L0,0 Z" transform="translate(2 6)"/>
    <path fill="#231F20" fill-opacity=".7" d="M1,1 L1,4 L1.649,4 C2.578,4 3,3.493 3,2.515 L3,2.5 C3,1.522 2.578,1 1.649,1 L1,1 Z M0,0 L1.649,0 C3.04,0 4,1.093 4,2.5 C4,3.921 3.04,5 1.649,5 L0,5 L0,0 Z" transform="translate(6.5 6)"/>
    <polygon fill="#231F20" fill-opacity=".7" points="0 0 1 0 1 4 3.5 4 3.5 5 0 5" transform="translate(11 6)"/>
  </g>
</svg>
