<svg xmlns="http://www.w3.org/2000/svg" width="16" height="16" viewBox="0 0 16 16">
  <g fill="none" fill-opacity=".7" fill-rule="evenodd">
    <rect width="4" height="2" x="6" y="11" fill="#62B543"/>
    <path fill="#62B543" d="M6,4 L6,5 L1,5 L1,3 L4,3 L4,1 L6,1 L6,4 Z"/>
    <rect width="2" height="2" x="7" y="7" fill="#62B543"/>
    <rect width="2" height="2" x="7" y="5" fill="#62B543"/>
    <rect width="2" height="2" x="5" y="5" fill="#62B543"/>
    <rect width="2" height="2" x="9" y="5" fill="#62B543"/>
    <rect width="5" height="2" x="1" y="13" fill="#62B543"/>
    <rect width="5" height="2" x="10" y="13" fill="#62B543"/>
    <path fill="#62B543" d="M12,3 L15,3 L15,5 L10,5 L10,4 L10,1 L12,1 L12,3 Z"/>
    <rect width="5" height="2" x="1" y="9" fill="#62B543"/>
    <rect width="5" height="2" x="10" y="9" fill="#62B543"/>
    <rect width="2" height="4" x="1" y="5" fill="#62B543"/>
    <rect width="2" height="4" x="13" y="5" fill="#62B543"/>
  </g>
</svg>
