<svg xmlns="http://www.w3.org/2000/svg" width="16" height="16" viewBox="0 0 16 16">
  <g fill="none" fill-opacity=".7" fill-rule="evenodd">
    <rect width="2" height="4" x="7" y="4" fill="#F26522"/>
    <rect width="2" height="2" x="1" y="13" fill="#F26522"/>
    <rect width="2" height="2" x="13" y="13" fill="#F26522"/>
    <rect width="2" height="2" x="7" y="13" fill="#F26522"/>
    <rect width="2" height="3" x="5" y="8" fill="#F26522"/>
    <rect width="2" height="3" x="9" y="8" fill="#F26522"/>
    <rect width="2" height="4" x="3" y="11" fill="#F26522"/>
    <rect width="2" height="4" x="11" y="11" fill="#F26522"/>
    <rect width="2" height="2" x="9" y="4" fill="#F26522"/>
    <rect width="2" height="2" x="5" y="4" fill="#F26522"/>
    <path fill="#F26522" d="M3 4L3 8 1 8 1 3 1 1 5 1 5 4 3 4zM15 2L15 8 13 8 13 4 11 4 11 1 15 1 15 2z"/>
  </g>
</svg>
