<svg xmlns="http://www.w3.org/2000/svg" width="16" height="16" viewBox="0 0 16 16">
  <g fill="#40B6E0" fill-opacity=".7" fill-rule="evenodd" transform="translate(1 1)">
    <path d="M6,4 L5,4 L5,2 L2,2 L2,5 L0,5 L0,0 L2,0 L12,0 L14,0 L14,5 L12,5 L12,2 L9,2 L9,4 L8,4 L8,8 L6,8 L6,4 Z"/>
    <rect width="2" height="2" x="1" y="6"/>
    <rect width="2" height="2" x="11" y="6"/>
    <rect width="2" height="3" x="6" y="11"/>
    <rect width="3" height="3" x="3" y="8"/>
    <rect width="3" height="3" x="8" y="8"/>
  </g>
</svg>
