<svg width="16" height="16" viewBox="0 0 16 16" fill="none" xmlns="http://www.w3.org/2000/svg">
<rect x="2" y="2" width="12" height="1.5" fill="#6E6E6E"/>
<rect x="2" y="5" width="12" height="1.5" fill="#6E6E6E"/>
<rect x="2" y="8" width="2" height="1.5" fill="#6E6E6E"/>
<rect x="2" y="11" width="2" height="1.5" fill="#6E6E6E"/>
<path fill-rule="evenodd" clip-rule="evenodd" d="M5 8H15V10V14H14H6H5V10V8ZM14 12V13H12V12H14ZM14 11V10H12V11H14ZM11 11V10H9V11H11ZM9 12V13H11V12H9ZM8 12V13H6V12H8ZM8 11V10H6V11H8Z" fill="#6E6E6E"/>
</svg>
