<svg xmlns="http://www.w3.org/2000/svg" width="16" height="16" viewBox="0 0 16 16">
  <path fill="#40B6E0" fill-opacity=".6" fill-rule="evenodd" d="M9.33650334,13.5777265 L8.4957,14.4387 C8.1177,14.8257 7.6147,15.0117 7.1157,14.9997 C6.6517,14.9867 6.1907,14.7987 5.8387,14.4387 L5.6247,14.2197 C6.1747,13.8777 6.5467,13.2627 6.5467,12.5587 L6.5467,11.1577 C6.5467,10.3177 5.8757,9.6307 5.0557,9.6307 L3.6857,9.6307 C2.9997,9.6307 2.3997,10.0117 2.0637,10.5747 L1.3337,9.8267 C0.8887,9.3697 0.8887,8.6227 1.3347,8.1657 L2.69592633,6.77119127 C1.71429577,6.45315217 1,5.52772011 1,4.445 C1,3.1 2.099,2 3.444,2 C4.50763059,2 5.41742014,2.68790704 5.751522,3.64088534 L7.0197,2.3417 C7.4667,1.8857 8.1967,1.8857 8.6427,2.3417 L10.1517516,3.88697752 C10.1252529,3.74351253 10.1114,3.59578147 10.1114,3.445 C10.1114,2.1 11.2104,1 12.5554,1 C13.9004,1 14.9994,2.1 14.9994,3.445 C14.9994,4.788 13.9004,5.889 12.5554,5.889 C12.3844995,5.889 12.2175708,5.8712242 12.0563636,5.83743479 L13.6647,7.4847 C14.1107,7.9417 14.1107,8.6887 13.6647,9.1457 L12.525389,10.3123421 C13.3909259,10.6898409 13.9994,11.5553506 13.9994,12.5554 C13.9994,13.8994 12.9004,15.0004 11.5554,15.0004 C10.5748489,15.0004 9.7250446,14.4152285 9.33650334,13.5777265 Z"/>
</svg>
