<svg xmlns="http://www.w3.org/2000/svg" width="16" height="16" viewBox="0 0 16 16">
  <g fill="none" fill-rule="evenodd">
    <polygon fill="#9AA7B0" fill-opacity=".8" points="7 1 3 5 7 5"/>
    <path fill="#9AA7B0" fill-opacity=".8" d="M8.5,13 L6,13 L6,15 L3,15 L3,6 L8,6 L8,1 L13,1 L13,9.03094688 C12.8362029,9.01052167 12.6693302,9 12.5,9 C10.290861,9 8.5,10.790861 8.5,13 Z"/>
    <path fill="#231F20" fill-opacity=".7" d="M12,12.1339746 L12,10 L13,10 L13,12.1339746 L14.8480762,11.0669873 L15.3480762,11.9330127 L13.5,13 L15.3480762,14.0669873 L14.8480762,14.9330127 L13,13.8660254 L13,16 L12,16 L12,13.8660254 L10.1519238,14.9330127 L9.65192379,14.0669873 L11.5,13 L9.65192379,11.9330127 L10.1519238,11.0669873 L12,12.1339746 Z"/>
    <rect width="1.5" height="1.5" x="7" y="14" fill="#231F20" fill-opacity=".7"/>
  </g>
</svg>
