<svg xmlns="http://www.w3.org/2000/svg" width="16" height="16" viewBox="0 0 16 16">
  <g fill="none" fill-rule="evenodd">
    <path fill="#F98B9E" fill-opacity=".6" d="M14.7870572,9.72025105 L10.7707299,7.13832638 L9,8.91973877 L9,14.9291115 C8.67339709,14.9758282 8.33952142,15 8,15 C4.134,15 1,11.866 1,8 C1,4.134 4.134,1 8,1 C11.866,1 15,4.134 15,8 C15,8.5935706 14.9261212,9.16988551 14.7870572,9.72025105 Z"/>
    <path fill="#231F20" fill-opacity=".7" d="M9,7.5 L9,8.5 L7,8.5 L7,11 L6,11 L6,5 L10,5 L10,6 L7,6 L7,7.5 L9,7.5 Z"/>
    <polygon fill="#59A869" fill-rule="nonzero" points="10 8 16 11.857 10 15.714"/>
  </g>
</svg>
