<svg xmlns="http://www.w3.org/2000/svg" width="16" height="16" viewBox="0 0 16 16">
  <path fill="#9AA7B0" fill-rule="evenodd" d="M7.5,12 L7.5,7.98518743 C9.01599681,7.8346701 10.2,6.55560443 10.2,5 C10.2,3.34314575 8.85685425,2 7.2,2 C5.54314575,2 4.2,3.34314575 4.2,5 C4.2,6.58964854 5.43639364,7.89052187 7,7.99343909 L7,12 L7,12.5 L7,14 L7.5,14 L7.5,12.5 L10,12.5 L10,12 L7.5,12 Z M8.5,11 L11,11 L11,13.5 L8.5,13.5 L8.5,15 L6,15 L6,8.81687909 C4.37715722,8.30717363 3.2,6.79105672 3.2,5 C3.2,2.790861 4.990861,1 7.2,1 C9.409139,1 11.2,2.790861 11.2,5 C11.2,6.75405596 10.0709773,8.24441453 8.5,8.78400756 L8.5,11 Z M7.2,6.6 C6.3163444,6.6 5.6,5.8836556 5.6,5 C5.6,4.1163444 6.3163444,3.4 7.2,3.4 C8.0836556,3.4 8.8,4.1163444 8.8,5 C8.8,5.8836556 8.0836556,6.6 7.2,6.6 Z M7.2,5.6 C7.53137085,5.6 7.8,5.33137085 7.8,5 C7.8,4.66862915 7.53137085,4.4 7.2,4.4 C6.86862915,4.4 6.6,4.66862915 6.6,5 C6.6,5.33137085 6.86862915,5.6 7.2,5.6 Z"/>
</svg>
