<svg xmlns="http://www.w3.org/2000/svg" width="16" height="16" viewBox="0 0 16 16">
  <path fill="#D9A343" fill-rule="evenodd" d="M8.5,11 L11,11 L11,13.5 L8.5,13.5 L8.5,15 L6,15 L6,8.81687909 C4.37715722,8.30717363 3.2,6.79105672 3.2,5 C3.2,2.790861 4.990861,1 7.2,1 C9.409139,1 11.2,2.790861 11.2,5 C11.2,6.75405596 10.0709773,8.24441453 8.5,8.78400756 L8.5,11 Z M7.2,6.4 C7.97319865,6.4 8.6,5.77319865 8.6,5 C8.6,4.22680135 7.97319865,3.6 7.2,3.6 C6.42680135,3.6 5.8,4.22680135 5.8,5 C5.8,5.77319865 6.42680135,6.4 7.2,6.4 Z"/>
</svg>
