<svg width="16" height="16" viewBox="0 0 16 16" fill="none" xmlns="http://www.w3.org/2000/svg">
<path fill-rule="evenodd" clip-rule="evenodd" d="M7.9918 11C6.22951 11 5 9.64917 5 8.01657V8C5 6.3674 6.2459 5 8.0082 5C9.77049 5 11 6.35083 11 7.98343V8C11 9.6326 9.7541 11 7.9918 11ZM8.0082 10.0552C9.14754 10.0552 9.94262 9.14365 9.94262 8.01657V8C9.94262 6.87293 9.13115 5.94475 7.9918 5.94475C6.85246 5.94475 6.05738 6.85635 6.05738 7.98343V8C6.05738 9.12707 6.86885 10.0552 8.0082 10.0552Z" fill="#9AA7B0"/>
<path fill-rule="evenodd" clip-rule="evenodd" d="M14.9291 9C14.9758 8.6734 15 8.33952 15 8C15 4.13401 11.866 1 8 1C4.13401 1 1 4.13401 1 8C1 11.866 4.13401 15 8 15C8.69497 15 9.36629 14.8987 10 14.7101V13.6586C9.37444 13.8797 8.70127 14 8 14C4.68629 14 2 11.3137 2 8C2 4.68629 4.68629 2 8 2C11.3137 2 14 4.68629 14 8C14 8.34071 13.9716 8.67479 13.917 9H14.9291Z" fill="#9AA7B0"/>
<path fill-rule="evenodd" clip-rule="evenodd" d="M11 10V16H12V13H14V12H12V11H15V10H11Z" fill="#40B6E0"/>
</svg>
