<svg xmlns="http://www.w3.org/2000/svg" width="16" height="16" viewBox="0 0 16 16">
  <g fill="none" fill-rule="evenodd">
    <path fill="#F98B9E" fill-opacity=".6" d="M15,8 C15,11.866 11.866,15 8,15 C4.134,15 1,11.866 1,8 C1,4.134 4.134,1 8,1 C11.866,1 15,4.134 15,8"/>
    <path fill="#231F20" fill-opacity=".7" d="M3.009,5 C1.84,5 1,4.144 1,3 C1,1.856 1.831,1 3,1 C4.169,1 5,1.856 5,3 C5,4.144 4.178,4.999 3.009,5 Z M0,2.967 C0,4.598 1.237,6 3,6 C4.763,6 6,4.615 6,3 C6,1.369 4.762,0 3,0 C1.237,0 0,1.352 0,2.967 Z" transform="translate(5 5)"/>
  </g>
</svg>
