<svg width="16" height="16" viewBox="0 0 16 16" fill="none" xmlns="http://www.w3.org/2000/svg">
<path fill-rule="evenodd" clip-rule="evenodd" d="M14.9291 9C14.9758 8.6734 15 8.33952 15 8C15 4.13401 11.866 1 8 1C4.13401 1 1 4.13401 1 8C1 11.866 4.13401 15 8 15C8.33952 15 8.6734 14.9758 9 14.9291V13.917C8.67479 13.9716 8.34071 14 8 14C4.68629 14 2 11.3137 2 8C2 4.68629 4.68629 2 8 2C11.3137 2 14 4.68629 14 8C14 8.34071 13.9716 8.67479 13.917 9H14.9291Z" fill="#9AA7B0"/>
<path fill-rule="evenodd" clip-rule="evenodd" d="M7.9918 11C6.22951 11 5 9.64917 5 8.01657V8C5 6.3674 6.2459 5 8.0082 5C9.77049 5 11 6.35083 11 7.98343V8C11 9.6326 9.7541 11 7.9918 11ZM8.0082 10.0552C9.14754 10.0552 9.94262 9.14365 9.94262 8.01657V8C9.94262 6.87293 9.13115 5.94475 7.9918 5.94475C6.85246 5.94475 6.05738 6.85635 6.05738 7.98343V8C6.05738 9.12707 6.86885 10.0552 8.0082 10.0552Z" fill="#9AA7B0"/>
<path fill-rule="evenodd" clip-rule="evenodd" d="M15 14.2825C14.53 14.7415 14.028 14.978 13.1 15C12.061 15.022 11 14.2794 11 13.0004C11 11.7124 11.971 11 13.1 11C14.3725 11 14.9 11.5542 14.9 11.5542L15.5162 10.8367C14.8294 10.2701 14.2883 10.0004 13.0982 10.0004C11.3402 10.0004 10.0002 11.3584 10.0002 13.0004C10.0002 14.6824 11.3642 16.0004 13.0022 16.0004C14.2928 16.0004 15.0232 15.5934 15.6162 14.9814L15 14.2825Z" fill="#40B6E0"/>
</svg>
