<svg xmlns="http://www.w3.org/2000/svg" width="16" height="16" viewBox="0 0 16 16">
  <g fill="none" fill-rule="evenodd">
    <path fill="#F98B9E" fill-opacity=".6" d="M14.7870572,9.72025105 L10.7707299,7.13832638 L9,8.91973877 L9,14.9291115 C8.67339709,14.9758282 8.33952142,15 8,15 C4.134,15 1,11.866 1,8 C1,4.134 4.134,1 8,1 C11.866,1 15,4.134 15,8 C15,8.5935706 14.9261212,9.16988551 14.7870572,9.72025105 Z"/>
    <polygon fill="#59A869" fill-rule="nonzero" points="10 8 16 11.857 10 15.714"/>
    <path fill="#231F20" fill-opacity=".7" d="M1.8125,3 C2.7765,3 3,2.6742 3,2.0492 L3,2.0322 C3,1.3292 2.7605,1 1.8125,1 L1.0005,1 L1.0005,3 L1.8125,3 Z M0.0005,0.0002 L1.8325,0.0002 C3.1675,0.0002 4.0005,0.7972 4.0005,2.0062 C4.0005,3.3692 2.9725,4 1.7175,4 L1.0005,3.9842 L1.0005,6.0002 L0.0005,6.0002 L0.0005,0.0002 Z" transform="translate(6 5)"/>
  </g>
</svg>
