<svg xmlns="http://www.w3.org/2000/svg" width="16" height="16" viewBox="0 0 16 16">
  <g fill="none" fill-rule="evenodd">
    <path fill="#9AA7B0" fill-opacity=".8" d="M8,8 C9.93375,8 11.5,6.43375 11.5,4.5 C11.5,4.27298282 11.4536129,3.94603517 11.3608386,3.51915705 L4.62769936,3.55943253 C4.54256645,3.96923012 4.5,4.28275261 4.5,4.5 C4.5,6.43375 6.06625,8 8,8 Z M8,9.75 C5.66375,9.75 1,10.9225 1,13.25 L1,15 L15,15 L15,13.25 C15,10.9225 10.33625,9.75 8,9.75 Z"/>
    <path fill="#40B6E0" d="M12.5005,3 L11.0295,3 L11.0005,3 L11.0005,2.397 C10.8745,1.56 10.2905,1 8.0005,1 C5.7095,1 5.1255,1.56 5.0005,2.397 L5.0005,3 L4.9705,3 L3.5005,3 C3.2255,3 3.0005,3.225 3.0005,3.5 C3.0005,3.774 3.2255,4 3.5005,4 L5.0005,4 L11.0005,4 L12.5005,4 C12.7745,4 13.0005,3.774 13.0005,3.5 C13.0005,3.225 12.7745,3 12.5005,3"/>
    <rect width="10" height="1" x="3" y="3" fill="#40B6E0"/>
    <rect width="6" height="3" x="5" y="1" fill="#40B6E0"/>
  </g>
</svg>
