<svg xmlns="http://www.w3.org/2000/svg" width="16" height="16" viewBox="0 0 16 16">
  <g fill="none" fill-rule="evenodd">
    <rect width="12" height="7" x="4" y="9" fill="#40B6E0" fill-opacity=".7"/>
    <polygon fill="#231F20" fill-opacity=".7" points="1.1 0 0 .443 .157 1.225 1 1 1 5 2 5 2 0" transform="translate(5 10)"/>
    <path fill="#9AA7B0" d="M2,14 L1,14 L1,5 L1,2 L15,2 L15,5 L15,8 L14,8 L2,8 L2,10 L3,10 L3,11 L2,11 L2,13 L3,13 L3,14 L2,14 Z M6,7 L10,7 L10,5 L6,5 L6,7 Z M5,7 L5,5 L2,5 L2,7 L5,7 Z M14,7 L14,5 L11,5 L11,7 L14,7 Z"/>
    <path fill="#231F20" fill-opacity=".7" d="M0,6 L0,5.1338 L1.6543,3.7777 C2.272,3.2665 2.5134,2.9967 2.5134,2.5849 C2.5134,2.166 2.2365,1.9388 1.846,1.9388 C1.4626,1.9388 1.1999,2.1518 0.8307,2.6062 L0.0639,1.9885 C0.5538,1.3211 1.0295,0.959 1.917,0.959 C2.9465,0.959 3.6281,1.5625 3.6281,2.4926 C3.6281,3.3375 3.2021,3.7493 2.3217,4.4309 L1.6123,5 L3.6778,5 L3.6778,6 L0,6 Z" transform="translate(8 9)"/>
    <path fill="#231F20" fill-opacity=".7" d="M2.69468299,5.05 C1.80627546,5.05 1.19285121,4.69745733 0.7698,4.19684673 L1.51719047,3.48471053 C1.85563143,3.86545662 2.20817411,4.07698222 2.7087847,4.07698222 C3.1177342,4.07698222 3.40681919,3.84430406 3.40681919,3.47765968 C3.40681919,3.06165933 3.04722567,2.83603201 2.44085227,2.83603201 L1.98959765,2.83603201 L1.82037717,2.14504838 L2.99786969,0.993077952 L0.998406544,0.993077952 L0.998406544,0 L4.39393868,0 L4.39393868,0.84769134 L3.14593762,2.03928557 C3.81576869,2.15209923 4.47149806,2.5046419 4.47149806,3.42125285 C4.47149806,4.36606721 3.79461613,5.05 2.69468299,5.05 Z" transform="translate(11 10)"/>
  </g>
</svg>
