<svg xmlns="http://www.w3.org/2000/svg" width="16" height="16" viewBox="0 0 16 16">
  <g fill="none" fill-rule="evenodd">
    <path fill="#6E6E6E" d="M3 7L3 1.4 5.088 1.4C6.848 1.4 8.064 2.608 8.064 4.184L8.064 4.2C8.064 5.776 6.848 7 5.088 7L3 7zM5.088 2.296L3.984 2.296 3.984 6.104 5.088 6.104C6.264 6.104 7.032 5.312 7.032 4.216L7.032 4.2C7.032 3.104 6.264 2.296 5.088 2.296zM9 7L9 1.4 11.512 1.4C12.152 1.4 12.656 1.576 12.976 1.896 13.224 2.144 13.352 2.456 13.352 2.824L13.352 2.84C13.352 3.512 12.968 3.872 12.552 4.088 13.208 4.312 13.664 4.688 13.664 5.448L13.664 5.464C13.664 6.464 12.84 7 11.592 7L9 7zM12.368 3L12.368 2.984C12.368 2.544 12.016 2.272 11.384 2.272L9.968 2.272 9.968 3.76 11.312 3.76C11.944 3.76 12.368 3.512 12.368 3zM12.68 5.344C12.68 4.872 12.304 4.592 11.528 4.592L9.968 4.592 9.968 6.128 11.6 6.128C12.264 6.128 12.68 5.864 12.68 5.36L12.68 5.344z"/>
    <polygon fill="#59A869" points="10 11 12 11 8 15 4 11 6 11 6 8 10 8" transform="rotate(180 8 11.5)"/>
  </g>
</svg>
