<svg xmlns="http://www.w3.org/2000/svg" width="16" height="16" viewBox="0 0 16 16">
  <g fill="none" fill-rule="evenodd">
    <polygon fill="#40B6E0" points="11 13 11 12 9 12 9 13 7 13 7 12 5 12 5 13 3 13 3 15 13 15 13 13"/>
    <polygon fill="#40B6E0" points="13.001 5 12.002 5 12.001 6.999 13.001 7 13 9 12 9 12.001 10.999 13.001 10.999 13.001 12.999 14.999 12.999 15 3 13.001 3"/>
    <polygon fill="#9AA7B0" fill-opacity=".8" points="5 3 5 4 7 4 7 3 9 3 9 4 11 4 11 3 13 3 13 1 3 1 3 3"/>
    <polygon fill="#9AA7B0" fill-opacity=".8" points="2.999 11 3.998 11 3.999 9.001 2.999 9 3 7 4 7 3.999 5.001 2.999 5.001 2.999 3.001 1.001 3.001 1 13 2.999 13"/>
  </g>
</svg>
