<svg xmlns="http://www.w3.org/2000/svg" width="16" height="16" viewBox="0 0 16 16">
  <path fill="#40B6E0" fill-opacity=".7" fill-rule="evenodd" d="M3,0 C1.34315,0 0,1.34315 0,3 L0,10 C0,11.6569 1.34315,13 3,13 L9.2809,13 L10.5,14 L14,14 L12.1213,12.1213 C12.6642,11.5784 13,10.8284 13,10 L13,3 C13,1.34315 11.6569,0 10,0 L3,0 Z M6.5,6 C3,6 2,5 2,5 L2,6 C2,6 3,7 6.5,7 C10,7 11,6 11,6 L11,5 C11,5 10,6 6.5,6 Z M6.5,5 C8.98528,5 11,4.32843 11,3.5 C11,2.67157 8.98528,2 6.5,2 C4.01472,2 2,2.67157 2,3.5 C2,4.32843 4.01472,5 6.5,5 Z M6.5,8 C3,8 2,7 2,7 L2,8 C2,8 3,9 6.5,9 C10,9 11,8 11,8 L11,7 C11,7 10,8 6.5,8 Z M2,9 C2,9 3,10 6.5,10 C10,10 11,9 11,9 L11,10 C11,10 10,11 6.5,11 C3,11 2,10 2,10 L2,9 Z" transform="translate(1 1)"/>
</svg>
