<svg version="1.2" xmlns="http://www.w3.org/2000/svg" viewBox="0 0 16 16" width="16" height="16">
    <path style="fill: #b27255 " id="Layer" class="s0"
          d="m4.5 4.9l-3.1 3.1l3.2 3.2c0.2 0.2 0.2 0.5 0 0.8q-0.2 0.2-0.5 0.1q-0.2 0.1-0.4-0.1l-3.5-3.6c-0.3-0.2-0.3-0.5 0-0.8l3.5-3.5c0.2-0.3 0.6-0.3 0.8 0c0.2 0.2 0.2 0.6 0 0.8zm11.4 3.5l-3.5 3.5q-0.2 0.2-0.5 0.2q-0.2 0-0.4-0.2c-0.2-0.2-0.2-0.5 0-0.8l3.1-3.1l-3.1-3.1c-0.2-0.2-0.2-0.6 0-0.8c0.2-0.3 0.6-0.3 0.8 0l3.5 3.5c0.2 0.3 0.2 0.6 0.1 0.8zm-5.5-7.7l-3.9 14.9c-0.1 0.2-0.3 0.4-0.6 0.4c0 0-0.1 0-0.1 0c-0.3-0.1-0.5-0.4-0.5-0.7l4-14.8c0.1-0.4 0.4-0.6 0.7-0.5c0.3 0.1 0.5 0.4 0.4 0.7z"/>
</svg>